# xmcd
#
# Track frame offsets: 
#        150
#        17512
#        32177
#        47995
#        60822
#        72154
#        93008
#        106708
#        117185
#        134847
#        145516
#        157627
#        168146
#        182450
#        220101
#        237805
#        243240
#        264260
#        284789
#        297453
#        318277
#        329391
#
# Disc length: 4739 seconds
#
# Revision: 0
# Processed by: cddbd v1.5.2PL0 Copyright (c) Steve Scherf et al.
# Submitted via: ExactAudioCopy v0.95b3
#
DISCID=28128116
DTITLE=The Beatles  - Magical Mystery Year - Deluxe Edition 09 Purple 
DTITLE=Chick-Disc 2 - mono  FLAC
DYEAR=1900
DGENRE=
TTITLE0=All You Need Is Love (mono)
TTITLE1=Baby You're A Rich Man (mono)
TTITLE2=Hello Goodbye (mono)
TTITLE3=Magical Mystery Tour (mono)
TTITLE4=Your Mother Should Know (mono)
TTITLE5=I Am The Walrus (mono)
TTITLE6=The Fool On The Hill (mono)
TTITLE7=Flying (mono)
TTITLE8=Blue Jay Way (mono)
TTITLE9=Lady Madonna (mono)
TTITLE10=The Inner Light (mono)
TTITLE11=All Together Now (mono)
TTITLE12=Hey Bulldog (mono)
TTITLE13=It's All Too Much (mono)
TTITLE14=Across The Universe (mono)
TTITLE15=Christmas Time (Is Here Again) (sessions)
TTITLE16=I Am The Walrus (US single)
TTITLE17=All You Need Is Love - RM11 (SSIP)
TTITLE18=Magical Mystery Tour (mono film mix)
TTITLE19=I Am The Walrus (mono film mix)
TTITLE20=Your Mother Should Know (mono film mix)
TTITLE21=Ant Medley
EXTD=
EXTT0=
EXTT1=
EXTT2=
EXTT3=
EXTT4=
EXTT5=
EXTT6=
EXTT7=
EXTT8=
EXTT9=
EXTT10=
EXTT11=
EXTT12=
EXTT13=
EXTT14=
EXTT15=
EXTT16=
EXTT17=
EXTT18=
EXTT19=
EXTT20=
EXTT21=
PLAYORDER=
